<svg xmlns="http://www.w3.org/2000/svg" viewBox="0 0 512 512" width="100%" height="100%">
  <circle cx="256" cy="256" r="240" fill="#2B454E"/>
  
  <path fill="#77C0BC" d="M30.4 458.4l3.9-19.3 19.3-3.9c27.7 27.7 72.8 27.7 100.6 0l209.5-209.6c14.9-14.9 14.9-39.2 0-54.1l3.9-19.3 19.3-3.9c27.7 27.7 27.7 72.8 0 100.6L177.4 458.4c-40.5 40.5-106.4 40.5-147 0z"/>
  <path fill="#77C0BC" d="M249.3 479.3l-23.2-23.2 222.7-222.7c40.5-40.5 40.5-106.4 0-147l3.9-19.3 19.3-3.9c53.3 53.3 53.3 140.1 0 193.4L249.3 479.3z"/>
  <path fill="#98D9D5" d="M125.5 355.5l-23.2-23.2 184-184c27.7-27.7 72.8-27.7 100.6 0l-23.2 23.2c-14.9-14.9-39.2-14.9-54.1 0l-184.1 184z"/>
  <path fill="#98D9D5" d="M30.4 458.4c-40.5-40.5-40.5-106.4 0-147L278.6 63.2c53.3-53.3 140.1-53.3 193.4 0l-23.2 23.2c-40.5-40.5-106.4-40.5-147 0L53.6 334.7c-27.7 27.7-27.7 72.8 0 100.6l-23.2 23.1z"/>
</svg>
